<svg version="1" xmlns="http://www.w3.org/2000/svg" width="640" height="640" viewBox="0 0 480.000000 480.000000"><path d="M217.8.5c-.2.2-3 .6-6.3.9-3.3.3-7.1.8-8.5 1.1-1.3.2-4 .7-6 1-15.7 2.3-42.5 10.9-59.5 19.1C71.4 54.2 24.1 112 6.7 182.5c-2.4 9.8-3.1 12.9-4.2 21-.4 2.2-.9 5.1-1.2 6.5-.3 1.4-.7 13.3-.8 26.5C.2 259.6 1.1 272 4 285c.5 2.5 1.2 5.7 1.5 7.3 1.3 6.8 1.9 9 6.5 22.9 9 26.9 21.5 50.1 39.5 73.3 6 7.7 23.1 25.7 30.7 32.2 33.6 29.1 79.5 50.5 119.4 55.9 2.7.3 5.2.8 5.5 1 1.2.7 21 1.8 32.9 1.8 22.4 0 40.2-2.2 60-7.5 4.1-1.2 8.2-2.2 9-2.4 1.8-.4 19.6-6.7 24.1-8.6 11.3-4.7 39.9-20.7 46.1-25.8.7-.6 6.3-5.1 12.3-9.9 42.5-34.3 72.3-83.6 83.3-137.7 5.4-26.3 6.2-59.7 2.1-84-.6-3.3-1.2-7.1-1.4-8.4-.2-1.4-1-5-1.7-8-.6-3.1-1.2-5.9-1.2-6.3-.1-.3-.4-1-.8-1.4-.5-.4-.8-1.7-.8-2.8 0-4.4-9.6-29.8-16.6-43.6C418 60.4 349.4 11.8 269 1.5c-8.9-1.1-50.2-1.9-51.2-1z"/></svg>